# xmcd CD database file
#
# Track frame offsets:
#	150
#	21620
#	41532
#
# Disc length: 795 seconds
#
# Revision: 0
# Processed by: cddbd v1.5.1PL0 Copyright (c) Steve Scherf et al.
# Submitted via: CDex 1.50
#
DISCID=21031903
DTITLE=渡辺美里 - 荒ぶる胸のシンバル鳴らせ
DYEAR=2000
DGENRE=J-Rock
TTITLE0=荒ぶる胸のシンバル鳴らせ
TTITLE1=こぶし
TTITLE2=Flower
EXTD=YEAR: 2000
EXTT0=
EXTT1=
EXTT2=
PLAYORDER=
